<?xml version="1.0" encoding="UTF-8" standalone="no" ?>
<!DOCTYPE svg PUBLIC "-//W3C//DTD SVG 1.1//EN" "http://www.w3.org/Graphics/SVG/1.1/DTD/svg11.dtd">
<svg xmlns="http://www.w3.org/2000/svg" xmlns:xlink="http://www.w3.org/1999/xlink" version="1.1" width="1080" height="1080" viewBox="0 0 1080 1080" xml:space="preserve">
<desc>Created with Fabric.js 5.2.4</desc>
<defs>
</defs>
<rect x="0" y="0" width="100%" height="100%" fill="transparent"></rect>
<g transform="matrix(1 0 0 1 540 540)" id="a39230cd-479a-4a0b-b003-d046e2b3c53e"  >
<rect style="stroke: none; stroke-width: 1; stroke-dasharray: none; stroke-linecap: butt; stroke-dashoffset: 0; stroke-linejoin: miter; stroke-miterlimit: 4; fill: rgb(255,255,255); fill-rule: nonzero; opacity: 1; visibility: hidden;" vector-effect="non-scaling-stroke"  x="-540" y="-540" rx="0" ry="0" width="1080" height="1080" />
</g>
<g transform="matrix(1 0 0 1 540 540)" id="34cf0407-4837-402f-8ee4-cfa1b3a60724"  >
</g>
<g transform="matrix(0.63 0 0 0.63 579.44 540)"  >
<g style="" vector-effect="non-scaling-stroke"   >
		<g transform="matrix(1 0 0 1 0 339.34)"  >
<path style="stroke: none; stroke-width: 1; stroke-dasharray: none; stroke-linecap: butt; stroke-dashoffset: 0; stroke-linejoin: miter; stroke-miterlimit: 4; fill: rgb(0,0,0); fill-rule: nonzero; opacity: 1;" vector-effect="non-scaling-stroke"  transform=" translate(-649.56, -1164.73)" d="M 848.1921 1625.3907 L 163.8249 1625.3907 C 132.5568 1625.3907 102.55200000000002 1613.0506 80.33130000000001 1591.0520999999999 L 24.990400000000015 1536.2644999999998 C 14.336900000000016 1525.7174999999997 21.805600000000016 1507.5575999999999 36.79680000000002 1507.5575999999999 L 975.2203 1507.5575999999999 C 990.2115 1507.5575999999999 997.6801999999999 1525.7175 987.0267 1536.2644999999998 L 931.6858 1591.0520999999999 C 909.465 1613.0507 879.4603 1625.3907 848.1921 1625.3907 z M 1279.1342 997.0688 C 1279.1342 1115.3855 1183.2196 1211.3001 1064.9029 1211.3001 C 1022.6889000000001 1211.3001 983.3317000000001 1199.0834 950.1601 1178.0029 C 927.9385000000001 1350.348 779.644 1484.6388 601.5040000000001 1484.6388 L 410.513 1484.6388 C 217.1692 1484.6388 58.97889999999995 1326.4485 58.97889999999995 1133.1046999999999 L 58.97889999999995 760.0079 C 58.97889999999995 729.2402999999999 84.15239999999996 704.0668999999999 114.91989999999996 704.0668999999999 C 375.6456999999999 720.6747999999999 636.3714 720.6747999999999 897.097 704.0668999999999 C 927.8646 704.0668999999999 953.0381 729.2402999999999 953.0381 760.0079 L 953.0381 814.3380999999999 C 985.5988 794.3622999999999 1023.9032 782.8373999999999 1064.9028 782.8373999999999 C 1183.2196 782.8375 1279.1342 878.7521 1279.1342 997.0688 z M 1210.9926 997.0688 C 1210.9926 916.3857 1145.586 850.9791 1064.9029 850.9791 C 1020.0003 850.9791 979.8367000000001 871.2437 953.0382000000001 903.1189 L 953.0382000000001 1091.0187 C 979.8368 1122.8939 1020.0004000000001 1143.1586 1064.9029 1143.1586 C 1145.5859 1143.1586 1210.9926 1077.752 1210.9926 997.0688 z" stroke-linecap="round" />
</g>
		<g transform="matrix(1 0 0 1 -392.83 -424.27)"  >
<path style="stroke: none; stroke-width: 1; stroke-dasharray: none; stroke-linecap: butt; stroke-dashoffset: 0; stroke-linejoin: miter; stroke-miterlimit: 4; fill: rgb(0,0,0); fill-rule: nonzero; opacity: 1;" vector-effect="non-scaling-stroke"  transform=" translate(-256.73, -401.12)" d="M 266.3843 706.4752 C 266.3843 706.4752 266.8459 705.9548 267.7402 704.9466 C 268.1874 704.4424 268.7427 703.8164 269.4026 703.0724 C 270.0539 702.319 270.75600000000003 701.4232000000001 271.5759 700.4437 C 274.7886 696.4708 279.2989 690.4569 283.7706 682.3248 C 288.1991 674.1753 292.6051 663.8804 295.4631 651.7378 C 296.8474 645.6621 297.987 639.1829 298.4329 632.3454 C 298.6766 628.9324 298.7626 625.4423 298.75890000000004 621.899 C 298.66620000000006 618.3507 298.5042 614.7471 298.05190000000005 611.1153 C 297.66980000000007 607.4798000000001 297.0185000000001 603.8292 296.28950000000003 600.1651 C 295.4137 596.527 294.55400000000003 592.8487 293.28270000000003 589.2562 C 293.00590000000005 588.3467 292.6763 587.4521000000001 292.3281 586.5624 C 291.9926 585.6718000000001 291.6558 584.7776 291.31780000000003 583.8798 C 290.55400000000003 582.1227 289.86760000000004 580.3293 288.9918 578.6104 C 288.2037 576.8532 287.2465 575.1709000000001 286.3498 573.4585000000001 L 286.1814 573.1374000000001 C 286.2503 573.2883 285.9085 572.5728 286.3145 573.4351 L 286.2047 573.2463 L 285.7648 572.4903 L 284.88239999999996 570.9742 C 284.2933 569.9617 283.70189999999997 568.9456 283.10869999999994 567.926 L 282.66659999999996 567.1769 L 282.25849999999997 566.5952000000001 L 281.44689999999997 565.4299000000001 C 280.9154 564.6515 280.38219999999995 563.8705000000001 279.84729999999996 563.0869000000001 L 279.45169999999996 562.4949000000001 L 278.97959999999995 561.8552000000002 L 278.03579999999994 560.5735000000002 C 277.40899999999993 559.7186000000002 276.78029999999995 558.8609000000002 276.14959999999996 558.0006000000002 C 274.85779999999994 556.2870000000001 273.4376 554.5871000000002 272.0868 552.8672000000001 C 270.69039999999995 551.1464000000001 269.19649999999996 549.4288000000001 267.7519 547.6969000000001 C 261.77079999999995 540.7925000000001 255.07799999999997 533.7709000000001 248.01129999999998 526.2810000000002 C 240.95 518.7906000000002 233.53959999999998 510.7980000000002 226.28659999999996 501.8093000000002 L 223.58319999999998 498.40950000000015 L 220.9312 494.8496000000001 C 220.0532 493.6470000000001 219.1508 492.48630000000014 218.29209999999998 491.2403000000001 L 215.72699999999998 487.4717000000001 L 214.44599999999997 485.5789000000001 L 214.12839999999997 485.1033000000001 L 213.54079999999996 484.1332000000001 L 213.02059999999997 483.2739000000001 L 210.93669999999997 479.83170000000007 L 209.89309999999998 478.1077000000001 C 209.72829999999996 477.8504000000001 209.52939999999998 477.4820000000001 209.32979999999998 477.10910000000007 L 208.73879999999997 476.0130000000001 L 206.39059999999998 471.60640000000006 L 205.22669999999997 469.39080000000007 C 204.86679999999996 468.66760000000005 204.55749999999998 467.9747000000001 204.22099999999998 467.2639000000001 L 202.2642 463.0057000000001 L 201.2976 460.8672000000001 L 200.42829999999998 458.6897000000001 L 198.69849999999997 454.3224000000001 C 198.09729999999996 452.8724000000001 197.59909999999996 451.3882000000001 197.10029999999998 449.9021000000001 L 195.59519999999998 445.4417000000001 C 194.61029999999997 442.4594000000001 193.86999999999998 439.40510000000006 193.0099 436.3789000000001 C 189.8604 424.2006000000001 188.07549999999998 411.6329000000001 187.6737 398.9998000000001 C 187.3218 386.36860000000013 188.2851 373.6647000000001 190.7545 361.2484000000001 C 191.9779 355.0177000000001 193.513 348.9420000000001 195.4788 342.8341000000001 L 196.7726 338.9088000000001 L 198.4522 334.2854000000001 L 199.3016 331.9891000000001 L 200.1611 329.8779000000001 L 201.9034 325.6741000000001 C 204.3449 320.18420000000015 206.8733 314.7980000000001 209.5866 309.68900000000014 C 212.2857 304.53630000000015 215.1256 299.6377000000001 217.95850000000002 294.8197000000001 C 223.70260000000002 285.28180000000015 229.57070000000002 276.3399000000001 235.2741 267.8017000000001 C 238.08 263.5863000000001 240.8623 259.4060000000001 243.6185 255.2652000000001 C 244.29350000000002 254.24070000000012 244.967 253.2186000000001 245.6388 252.1991000000001 C 246.2919 251.1859000000001 246.9434 250.1752000000001 247.5933 249.1671000000001 C 248.2612 248.1329000000001 248.9274 247.1014000000001 249.5918 246.07260000000008 C 250.208 245.09910000000008 250.8226 244.12810000000007 251.4356 243.15980000000008 C 252.6751 241.24710000000007 253.8524 239.21400000000008 255.057 237.25990000000007 C 256.2215 235.28840000000008 257.37919999999997 233.32830000000007 258.5299 231.38000000000008 C 259.6123 229.4223000000001 260.7264 227.47770000000008 261.7693 225.5353000000001 C 262.7597 223.5849000000001 263.865 221.66760000000008 264.7985 219.73610000000008 C 272.58549999999997 204.33260000000007 277.7314 189.28390000000007 279.46299999999997 174.99980000000008 C 279.75839999999994 173.20930000000007 279.847 171.44570000000007 279.98159999999996 169.68640000000008 C 280.0465 168.87180000000006 280.11129999999997 168.0618000000001 280.17569999999995 167.25620000000006 C 280.18339999999995 166.28040000000007 280.191 165.31000000000006 280.1987 164.34530000000007 C 280.1952 163.58960000000008 280.1919 162.83830000000006 280.1884 162.09150000000005 C 280.1435 161.26200000000006 280.0987 160.43740000000005 280.0543 159.61780000000005 C 279.91020000000003 157.97900000000004 279.7884 156.34020000000004 279.5715 154.72500000000005 C 279.1581 151.49230000000006 278.53610000000003 148.33510000000004 277.7514 145.28780000000006 C 276.9545 142.24350000000007 275.96299999999997 139.33030000000005 274.9191 136.51230000000007 C 272.8013 130.87980000000007 270.0441 125.88830000000007 267.15250000000003 121.44800000000006 C 264.2044 117.05110000000006 260.99460000000005 113.29150000000007 257.75690000000003 110.19470000000007 C 251.25040000000004 104.01380000000007 244.72160000000002 100.45600000000007 240.03140000000002 98.56770000000007 C 238.86270000000002 98.06210000000007 237.79940000000002 97.69730000000007 236.87460000000002 97.37270000000008 C 235.95290000000003 97.02640000000008 235.16160000000002 96.77960000000007 234.5175 96.60830000000009 C 233.2238 96.23650000000009 232.55620000000002 96.04460000000009 232.55620000000002 96.04460000000009 C 232.55620000000002 96.04460000000009 233.251 95.99220000000008 234.597 95.8907000000001 C 235.2765 95.82640000000009 236.1199 95.78140000000009 237.1261 95.78530000000009 C 238.13760000000002 95.7555000000001 239.31220000000002 95.76170000000009 240.6391 95.86880000000009 C 243.3074 96.00230000000009 246.6192 96.42230000000009 250.44850000000002 97.41920000000009 C 254.28810000000001 98.38140000000008 258.6365 99.95590000000009 263.24960000000004 102.3607000000001 C 272.47880000000004 107.1193000000001 282.67100000000005 115.45390000000009 291.09430000000003 127.7448000000001 C 295.3383 133.8641000000001 299.00710000000004 141.0050000000001 301.9017 149.0450000000001 C 302.6308 151.0542000000001 303.2802 153.1304000000001 303.8645 155.2612000000001 C 304.13500000000005 156.33550000000008 304.4073 157.4163000000001 304.68120000000005 158.5036000000001 C 304.92120000000006 159.6846000000001 305.16270000000003 160.8725000000001 305.4055000000001 162.06740000000008 C 305.5873000000001 163.06080000000009 305.7702000000001 164.0600000000001 305.9541000000001 165.06480000000008 L 306.0210000000001 165.43360000000007 C 306.01430000000005 165.25950000000006 306.06840000000005 165.87520000000006 306.07130000000006 165.89100000000008 L 306.09670000000006 166.1002000000001 L 306.19810000000007 166.93920000000008 L 306.39990000000006 168.62750000000008 C 306.6670000000001 170.88770000000008 306.9691000000001 173.18740000000008 307.05300000000005 175.5045000000001 C 307.65540000000004 184.79880000000009 307.07970000000006 194.5237000000001 305.4802000000001 204.28760000000008 C 303.88400000000007 214.05870000000007 301.27330000000006 223.87060000000008 297.9147000000001 233.5429000000001 C 294.5606000000001 243.2453000000001 290.4958000000001 252.7392000000001 285.8945000000001 262.18020000000007 C 285.30970000000013 263.3738000000001 284.7234000000001 264.57070000000004 284.1354000000001 265.7707000000001 C 283.56920000000014 266.9005000000001 283.00150000000014 268.0333000000001 282.43240000000014 269.16890000000006 C 281.8358000000001 270.3253000000001 281.23780000000016 271.48460000000006 280.63830000000013 272.64670000000007 C 280.03480000000013 273.78920000000005 279.4296000000001 274.93450000000007 278.82300000000015 276.08260000000007 C 276.39630000000017 280.67750000000007 273.9370000000001 285.2130000000001 271.43740000000014 289.7320000000001 C 266.49120000000016 298.75970000000007 261.51160000000016 307.6708000000001 256.92020000000014 316.5787000000001 C 254.65070000000014 321.0178000000001 252.40740000000014 325.4657000000001 250.40620000000013 329.9140000000001 C 248.30270000000013 334.3490000000001 246.47980000000013 338.7910000000001 244.73100000000014 343.2375000000001 L 243.51940000000013 346.57240000000013 L 242.89990000000014 348.23590000000013 L 242.39850000000015 349.7658000000001 L 241.38280000000015 352.80830000000014 L 240.25270000000015 356.65210000000013 L 239.68330000000014 358.6082000000001 L 239.54080000000013 359.0974000000001 C 239.78940000000014 358.27190000000013 239.58210000000014 358.9881000000001 239.62510000000015 358.8578000000001 L 239.57670000000016 359.0660000000001 L 239.38260000000017 359.8987000000001 L 238.58600000000015 363.22460000000007 L 238.17250000000016 364.8844000000001 C 238.04740000000015 365.4414000000001 237.95890000000014 366.0087000000001 237.84920000000017 366.57020000000006 L 237.21080000000018 369.94590000000005 C 235.64990000000017 378.97970000000004 234.94540000000018 388.2508 235.25300000000018 397.52220000000005 C 235.48560000000018 406.7959000000001 236.7678000000002 416.0536000000001 238.85740000000018 425.06090000000006 C 239.4631000000002 427.28970000000004 239.94190000000017 429.55750000000006 240.62080000000017 431.75930000000005 L 241.62040000000016 435.06700000000006 C 241.94600000000017 436.1722000000001 242.26650000000015 437.2791000000001 242.68280000000016 438.3484000000001 L 243.84560000000016 441.5886000000001 L 244.42090000000016 443.2104000000001 L 245.08390000000017 444.7915000000001 L 246.40070000000017 447.9552000000001 L 247.04620000000017 449.52620000000013 L 247.70840000000018 450.9216000000001 L 249.0067000000002 453.7262000000001 L 249.3261000000002 454.4305000000001 C 249.4266000000002 454.6594000000001 249.5294000000002 454.8917000000001 249.7120000000002 455.2102000000001 L 250.67670000000018 456.9796000000001 L 252.60310000000018 460.5123000000001 L 253.08400000000017 461.39420000000007 L 253.20420000000018 461.61460000000005 C 253.52590000000018 462.16450000000003 252.90160000000017 461.11600000000004 253.0066000000002 461.28830000000005 L 253.2318000000002 461.65670000000006 L 254.12010000000018 463.13740000000007 L 255.8858000000002 466.10300000000007 C 256.4793000000002 467.09170000000006 257.1638000000002 468.0710000000001 257.7957000000002 469.05570000000006 L 259.7288000000002 472.00640000000004 L 261.8047000000002 474.94750000000005 C 267.3087000000002 482.82400000000007 273.5581000000002 490.6521 279.9223000000002 498.70560000000006 C 286.28900000000016 506.75390000000004 292.82270000000017 515.0181 298.86960000000016 523.8136000000001 C 300.36630000000014 526.0541000000001 301.87240000000014 528.2338000000001 303.32320000000016 530.4857000000001 C 304.73460000000017 532.7983 306.1689000000002 535.0361 307.51770000000016 537.3666000000001 C 308.18010000000015 538.5465 308.84040000000016 539.7229000000001 309.49870000000016 540.8955000000001 L 310.47940000000017 542.6504000000001 L 310.96740000000017 543.5255000000001 L 311.45820000000015 544.4891000000001 C 312.10010000000017 545.7803000000001 312.74010000000015 547.0673000000002 313.3779000000001 548.3501000000001 L 314.31740000000013 550.2714000000001 L 314.7826000000001 551.2292000000001 L 315.13330000000013 552.0589000000001 C 316.11720000000014 554.4287000000002 317.09410000000014 556.7825000000001 318.06440000000015 559.1193000000001 C 319.01020000000017 561.6681000000001 319.92360000000014 564.1995000000001 320.66430000000014 566.7564000000001 C 321.4884000000001 569.2874 322.08550000000014 571.8529000000001 322.73700000000014 574.3703 C 323.03520000000015 575.6358 323.2801000000001 576.9065 323.53790000000015 578.1662 C 323.80260000000015 579.4247 324.0421000000002 580.6799 324.2219000000002 581.9387 C 325.10380000000015 586.9464 325.50800000000015 591.902 325.76750000000015 596.7325000000001 C 325.8933000000002 601.5711000000001 325.92960000000016 606.2933 325.51320000000015 610.879 C 324.20350000000013 629.2478 319.00730000000016 645.2136 312.61960000000016 658.1072 C 306.16920000000016 671.028 298.4474000000002 680.9019000000001 291.36740000000015 688.0509000000001 C 287.80110000000013 691.6159000000001 284.4687000000001 694.5881 281.37640000000016 696.9225000000001 C 280.61450000000013 697.5116000000002 279.88100000000014 698.0788000000001 279.17670000000015 698.6234000000002 C 278.44690000000014 699.1340000000001 277.7470000000001 699.6236000000001 277.07790000000017 700.0917000000002 C 276.40810000000016 700.5511000000001 275.7690000000002 700.9893000000002 275.1609000000002 701.4063000000002 C 274.5321000000002 701.7999000000002 273.9353000000002 702.1733000000003 273.3717000000002 702.5262000000002 C 271.1445000000002 703.9689000000002 269.37680000000023 704.8736000000002 268.1851000000002 705.5094000000003 C 266.9973 706.1464 266.3843 706.4752 266.3843 706.4752 z" stroke-linecap="round" />
</g>
		<g transform="matrix(1 0 0 1 -6.67 -437.23)"  >
<path style="stroke: none; stroke-width: 1; stroke-dasharray: none; stroke-linecap: butt; stroke-dashoffset: 0; stroke-linejoin: miter; stroke-miterlimit: 4; fill: rgb(0,0,0); fill-rule: nonzero; opacity: 1;" vector-effect="non-scaling-stroke"  transform=" translate(-642.88, -388.16)" d="M 512.7908 723.9415 C 512.7908 723.9415 512.3648 723.1013 511.5392 721.4734 C 510.7212 719.8423 509.46819999999997 717.4381999999999 507.92379999999997 714.2655 C 506.3567 711.1014 504.4414 707.1903 502.25649999999996 702.5604 C 500.05359999999996 697.9348 497.5755 692.5926999999999 494.91459999999995 686.5417 C 492.19559999999996 680.5122 489.3982 673.7366 486.4487 666.2825 C 483.4618 658.8384 480.5888 650.6266 477.72999999999996 641.7141 C 474.8678 632.8003 472.30279999999993 623.1132 470.0603 612.6974 C 469.7845 611.393 469.5073 610.0803 469.22839999999997 608.7592 C 468.9881 607.4205999999999 468.74629999999996 606.0735999999999 468.5028 604.7183 C 468.27529999999996 603.4256 468.0463 602.125 467.81579999999997 600.8166 C 467.61589999999995 599.4064 467.4145 597.9879 467.212 596.561 C 467.0158 595.1297000000001 466.8188 593.6902 466.62039999999996 592.2425000000001 C 466.46459999999996 590.8178 466.30769999999995 589.3851000000001 466.1502 587.9445000000001 C 465.79949999999997 585.0633 465.5931 582.1306000000001 465.37289999999996 579.1609000000001 C 464.54359999999997 567.2814000000001 464.67029999999994 554.7243000000001 466.12669999999997 541.6657000000001 C 466.51959999999997 538.4046000000001 466.86449999999996 535.0990000000002 467.4994 531.7935000000001 C 467.7949 530.1385000000001 468.0469 528.4686000000002 468.38829999999996 526.8028000000002 C 468.7501 525.1378000000002 469.1133 523.4663000000002 469.47799999999995 521.7883000000002 L 470.03329999999994 519.2633000000002 L 470.7004999999999 516.7464000000002 C 471.1508999999999 515.0630000000002 471.6029999999999 513.3734000000002 472.05659999999995 511.67770000000024 C 472.5464999999999 509.98860000000025 473.11229999999995 508.30860000000024 473.64459999999997 506.6121000000002 C 474.1953 504.92050000000023 474.6982 503.2059000000002 475.36229999999995 501.5304000000002 C 476.62229999999994 498.15940000000023 477.85489999999993 494.73980000000023 479.4084 491.40510000000023 C 480.18019999999996 489.7383000000002 480.85609999999997 488.0209000000002 481.72499999999997 486.37920000000025 C 482.5712 484.72520000000026 483.41999999999996 483.06610000000023 484.27139999999997 481.40180000000026 L 484.9147 480.15250000000026 L 485.07599999999996 479.8399000000003 L 485.518 479.10560000000027 L 485.82829999999996 478.56900000000024 L 487.07289999999995 476.41860000000025 C 487.91209999999995 474.97570000000024 488.7536999999999 473.52850000000024 489.59779999999995 472.07720000000023 C 490.69909999999993 470.4095000000002 491.80359999999996 468.73700000000025 492.91099999999994 467.0598000000002 L 494.5951999999999 464.54520000000025 C 495.1603999999999 463.69190000000026 495.72349999999994 462.99750000000023 496.2904999999999 462.21430000000026 C 497.4278999999999 460.6898000000003 498.5680999999999 459.16110000000026 499.7115999999999 457.6284000000003 C 500.84309999999994 456.0784000000003 502.11099999999993 454.6685000000003 503.31479999999993 453.17650000000026 C 504.54459999999995 451.7163000000003 505.74319999999994 450.19760000000025 507.04329999999993 448.8003000000003 C 508.34099999999995 447.3958000000003 509.64199999999994 445.98790000000025 510.9457999999999 444.57660000000027 C 512.2350999999999 443.13980000000026 513.5996999999999 441.8014000000003 514.9674999999999 440.4561000000003 C 516.3357999999998 439.1085000000003 517.7076999999998 437.75780000000026 519.0824999999999 436.40410000000026 C 520.5019999999998 435.11650000000026 521.9243999999999 433.8259000000003 523.3502999999998 432.53260000000023 C 524.7761999999998 431.23270000000025 526.2195999999998 429.95280000000025 527.7076999999998 428.74610000000024 C 539.4617999999998 418.8035000000002 552.1916999999999 409.99950000000024 565.4121999999999 402.18610000000024 C 572.0191999999998 398.23090000000025 578.7706999999999 394.62000000000023 585.5676999999998 391.0467000000002 C 587.2748999999998 390.1871000000002 588.9837999999999 389.32630000000023 590.6949999999998 388.4645000000002 L 593.3939999999998 387.12180000000023 L 595.8668999999998 385.92830000000026 L 600.8305999999998 383.53540000000027 L 606.0572999999998 381.09050000000025 C 633.5645999999998 368.34020000000027 660.9802999999998 357.5229000000003 685.9362999999998 344.53770000000026 C 692.2035999999998 341.3320000000003 698.2511999999998 337.94980000000027 704.1430999999999 334.42540000000025 L 708.5148999999999 331.7428000000003 L 709.0618 331.4081000000003 C 708.9943999999999 331.45410000000027 709.5981999999999 331.0686000000003 708.9801 331.46910000000025 L 709.2718 331.27640000000025 L 710.4408999999999 330.50850000000025 L 712.7823999999999 328.97900000000027 C 716.1560999999999 326.8444000000003 718.377 325.14170000000024 721.0192999999999 323.31550000000027 C 731.6330999999999 315.4835000000003 741.6222999999999 306.7661000000003 749.9677999999999 297.2192000000003 C 766.9047999999999 278.19280000000026 777.3463999999999 256.0146000000003 778.6219999999998 233.4916000000003 C 778.9384999999999 227.8375000000003 778.7347999999998 222.13520000000028 778.0515999999999 216.4611000000003 C 777.3526999999999 210.7896000000003 776.1865999999999 205.1459000000003 774.6205999999999 199.5973000000003 C 773.0412999999999 194.0522000000003 771.0431999999998 188.6123000000003 768.7379999999998 183.3148000000003 C 766.4225999999999 178.0201000000003 763.7486999999999 172.8974000000003 760.8712999999998 167.9288000000003 C 755.0897999999997 157.99760000000032 748.1974999999998 148.9030000000003 740.7979999999998 140.6880000000003 C 737.1011999999997 136.5734000000003 733.2526999999998 132.6941000000003 729.3001999999998 129.0603000000003 C 728.3074999999998 128.1576000000003 727.3331999999998 127.2372000000003 726.3166999999997 126.3809000000003 C 725.3722999999998 125.5650000000003 724.4324999999998 124.7529000000003 723.4974999999997 123.9449000000003 C 721.2509999999997 122.16770000000031 719.0445999999997 120.3829000000003 716.8657999999997 118.6093000000003 C 708.8624999999997 112.3096000000003 700.1748999999998 106.55130000000031 691.8219999999997 101.4055000000003 C 683.4609999999997 96.1890000000003 675.0634999999996 91.86670000000031 667.1501999999997 87.7327000000003 C 651.1947999999996 79.69050000000031 636.6707999999996 73.41770000000031 624.6417999999996 68.30480000000031 C 612.5246999999996 63.25920000000031 603.0042999999996 59.294800000000315 596.5131999999996 56.591700000000316 C 590.0081999999996 53.84140000000031 586.5388999999997 52.374600000000314 586.5388999999997 52.374600000000314 C 586.5388999999997 52.374600000000314 587.4716999999997 52.506900000000314 589.2787999999997 52.76320000000031 C 591.0844999999997 53.02710000000031 593.7741999999997 53.37920000000031 597.2596999999997 53.927900000000314 C 600.7478999999997 54.474000000000316 605.0566999999998 55.113100000000316 610.0994999999997 55.99910000000031 C 615.1559999999997 56.82760000000031 620.9478999999997 57.89140000000031 627.4353999999997 59.15390000000031 C 640.4087999999997 61.69470000000031 656.1363999999998 65.20170000000032 674.0221999999998 70.6655000000003 C 676.2634999999998 71.3263000000003 678.5201999999998 72.0934000000003 680.8163999999998 72.85020000000031 C 683.1107999999998 73.61510000000031 685.4456999999998 74.38460000000032 687.7851999999998 75.27180000000031 C 690.1351999999998 76.13830000000031 692.5190999999998 77.01720000000032 694.9356999999998 77.9082000000003 C 697.3350999999998 78.8755000000003 699.7668999999997 79.8559000000003 702.2304999999998 80.8491000000003 C 712.0757999999997 84.9861000000003 722.0950999999998 89.8589000000003 732.7281999999998 96.0296000000003 C 735.1362999999998 97.4769000000003 737.5640999999998 98.9464000000003 739.9985999999998 100.4562000000003 L 740.4561999999997 100.7380000000003 L 740.6851999999998 100.8790000000003 L 741.1820999999998 101.2245000000003 L 742.1476999999998 101.8730000000003 L 744.0869999999998 103.1773000000003 C 745.3946999999997 104.0366000000003 746.6598999999998 104.9625000000003 747.9473999999998 105.8762000000003 C 753.0788999999997 109.5538000000003 758.1445999999997 113.54730000000029 763.0996999999998 117.8703000000003 C 772.9986999999998 126.5293000000003 782.3037999999998 136.6451000000003 790.7417999999998 148.1094000000003 C 794.9633999999998 153.8425000000003 798.8731999999998 159.9786000000003 802.4485999999998 166.4734000000003 C 806.0323999999998 172.9639000000003 809.2299999999998 179.8449000000003 811.9387999999998 187.08570000000032 C 814.6606999999998 194.32050000000032 816.8720999999998 201.92750000000032 818.4103999999998 209.83680000000032 C 819.9583999999998 217.74010000000033 820.8712999999998 225.94640000000032 820.9073999999997 234.30410000000032 C 820.8718999999998 236.4184000000003 820.8834999999997 238.43460000000033 820.7858999999997 240.64830000000032 L 820.5733999999998 244.0683000000003 C 820.4980999999998 245.1948000000003 820.4176999999997 246.4517000000003 820.3269999999998 247.2161000000003 L 820.0625999999997 249.8551000000003 L 819.9300999999997 251.17650000000032 L 819.7353999999997 252.44660000000033 L 819.6048999999997 253.23070000000033 C 819.2477999999998 255.32310000000032 818.8897999999997 257.41940000000034 818.5308999999997 259.51950000000033 C 818.2222999999998 261.63810000000035 817.6227999999998 263.6733000000003 817.1366999999998 265.7508000000003 C 816.5970999999998 267.8084000000003 816.1658999999997 269.9197000000003 815.5111999999998 271.9422000000003 C 814.1890999999998 275.9797000000003 812.9888999999998 280.1139000000003 811.2878999999998 284.0069000000003 C 808.2137999999998 291.98370000000034 804.2007999999998 299.4723000000003 799.9044999999998 306.7640000000003 C 797.6216999999998 310.2965000000003 795.4050999999997 313.92420000000027 792.8810999999997 317.2660000000003 C 791.6364999999997 318.9530000000003 790.4459999999997 320.7063000000003 789.1409999999997 322.3383000000003 L 785.2082999999998 327.23150000000027 C 783.9157999999998 328.89140000000026 782.5130999999998 330.42040000000026 781.1269999999997 331.97990000000027 C 779.7263999999997 333.51980000000026 778.3676999999997 335.1202000000003 776.9199999999997 336.60830000000027 C 774.0076999999998 339.5605000000003 771.1465999999997 342.60650000000027 768.0788999999997 345.37740000000025 C 762.0771999999997 351.14400000000023 755.6956999999998 356.2858000000002 749.0792999999998 361.34750000000025 C 735.7859999999997 371.28710000000024 721.9197999999998 379.49900000000025 707.8427999999998 386.79910000000024 C 679.6857999999997 401.35220000000027 651.1776999999997 411.99920000000026 624.9709999999998 423.2480000000002 L 620.1394999999998 425.3125000000002 L 615.1169999999997 427.5320000000002 L 612.6062999999997 428.64310000000023 L 610.3606999999997 429.6724000000002 L 605.6218999999998 431.8386000000002 C 599.3829999999998 434.7919000000002 593.1975999999997 437.7628000000002 587.2885999999997 440.97350000000023 C 575.3454999999998 447.24410000000023 564.2106999999997 454.1683000000002 554.0433999999998 461.6871000000002 C 543.8185999999998 469.1661000000002 534.9048999999998 477.5161000000002 527.1346999999998 486.3626000000002 C 526.6638999999998 486.9072000000002 526.1091999999999 487.4766000000002 525.7061999999999 487.99860000000024 L 524.4496999999999 489.57280000000026 C 523.5994 490.61770000000024 522.7514999999999 491.65980000000025 521.9061999999999 492.69880000000023 C 520.9553999999999 494.05720000000025 520.0074999999999 495.41160000000025 519.0622999999999 496.76210000000026 L 517.6421999999999 498.80070000000023 L 517.2876999999999 499.3094000000002 C 517.3564999999999 499.1863000000002 516.8828999999998 499.9440000000002 517.3977999999998 499.0977000000002 L 517.2568999999999 499.3252000000002 L 516.6928999999999 500.2342000000002 C 515.9355999999999 501.4455000000002 515.1806999999999 502.6532000000002 514.4283999999999 503.8570000000002 C 513.6458999999999 505.0454000000002 513.0335999999999 506.3373000000002 512.3245999999999 507.5667000000002 C 511.6672999999999 508.8258000000002 510.8780999999999 510.0117000000002 510.27919999999995 511.30140000000017 C 509.64459999999997 512.5746000000001 509.01199999999994 513.8436000000002 508.38169999999997 515.1082000000001 C 503.3918 525.2973000000002 500.0454 536.1247000000001 497.4595 546.8802000000002 C 494.8623 557.6578000000002 493.557 568.5004000000001 492.8343 579.0283000000002 C 492.66659999999996 581.6631000000002 492.4821 584.2773000000002 492.4429 586.8750000000002 C 492.404 588.1748000000002 492.3653 589.4675000000002 492.327 590.7530000000003 C 492.3244 592.0108000000002 492.3221 593.2615000000003 492.3194 594.5050000000002 C 492.3194 595.7524000000002 492.3191 596.9926000000003 492.3191 598.2255000000002 C 492.3676 599.5531000000002 492.4158 600.8728000000002 492.4638 602.1845000000002 C 492.4876 602.8403000000002 492.5115 603.4942000000002 492.5353 604.1460000000002 L 492.5638 605.1231000000001 L 492.5774 605.6105000000001 C 492.5975 605.8491000000001 492.5571 605.5594000000001 492.5664 605.6739000000001 L 492.5789 605.9067000000001 C 492.64459999999997 607.1494000000001 492.7102 608.3843000000002 492.77529999999996 609.6113000000001 C 493.2847 619.4438000000001 494.4002 628.8059000000002 495.57359999999994 637.6517000000001 C 498.01739999999995 655.3344000000001 501.26179999999994 670.8172000000001 503.9615999999999 683.6013000000002 C 506.7860999999999 696.4177000000002 509.00499999999994 706.4877000000001 510.5180999999999 713.3537000000001 C 512.0004 720.2589 512.7908 723.9415 512.7908 723.9415 z" stroke-linecap="round" />
</g>
		<g transform="matrix(1 0 0 1 -64.97 -456.71)"  >
<path style="stroke: none; stroke-width: 1; stroke-dasharray: none; stroke-linecap: butt; stroke-dashoffset: 0; stroke-linejoin: miter; stroke-miterlimit: 4; fill: rgb(0,0,0); fill-rule: nonzero; opacity: 1;" vector-effect="non-scaling-stroke"  transform=" translate(-584.59, -368.68)" d="M 780.1026 711.9634 C 780.1026 711.9634 776.7498 711.2763 770.4633 709.9881 C 767.3313 709.3262000000001 763.5009 708.1998 758.937 706.9586 C 756.6521 706.3312000000001 754.294 705.4831 751.7165 704.6535 C 749.1585 703.7891 746.4122 702.9046 743.6063 701.7493000000001 C 732.2192 697.4743000000001 718.6471 691.2256000000001 704.0735000000001 682.0826000000001 C 689.5115000000001 672.9522000000001 673.9844 660.8897000000001 658.9403000000001 645.4693000000001 C 657.0823000000001 643.5251000000001 655.2504000000001 641.5128000000001 653.4050000000001 639.4709000000001 C 652.4815000000001 638.4487000000001 651.5534000000001 637.4214000000002 650.6209000000001 636.3892000000002 C 649.7331000000001 635.3184000000002 648.8411000000001 634.2424000000002 647.9449000000001 633.1614000000002 C 646.1642 630.9870000000002 644.3370000000001 628.8063000000002 642.5446000000001 626.5623000000002 C 640.8249000000001 624.2589000000002 639.0899000000001 621.9350000000002 637.3399000000001 619.5914000000001 C 635.5444000000001 617.2701000000002 633.9322000000001 614.7924000000002 632.2791000000001 612.3071000000001 C 631.4538000000001 611.0619000000002 630.6254000000001 609.8117000000001 629.7934000000001 608.5566000000001 L 629.1689000000001 607.6128000000001 L 628.8562000000002 607.1400000000001 C 628.8425000000002 607.1369000000001 628.3985000000001 606.3128000000002 628.5226000000001 606.5545000000001 L 628.3863000000001 606.3277 L 627.2929000000001 604.5093 C 625.8353000000002 602.0786 624.3667000000002 599.6295 622.8871000000001 597.1626 C 621.3985000000001 594.346 619.8993000000002 591.5092 618.3894000000001 588.6528 C 616.8087000000002 585.7529999999999 615.5655000000002 582.9281 614.2073000000001 580.0369999999999 C 613.5415000000002 578.5919999999999 612.8735000000001 577.1424 612.2034000000001 575.6881999999999 C 611.5144000000001 574.2394999999999 610.9705000000001 572.7316999999999 610.3446000000001 571.2466999999999 C 609.1544000000001 568.2556999999999 607.8595000000001 565.2708999999999 606.7413000000001 562.2058 C 605.6690000000001 559.121 604.5907000000001 556.0183999999999 603.5063000000001 552.899 C 599.4398000000001 540.3258 596.2466000000002 527.1408 594.0669000000001 513.5222 C 591.8341000000001 499.9069 590.8664000000001 485.8364 590.9696000000001 471.5708 C 591.1216000000002 457.30510000000004 592.4178000000002 442.8297 595.0383000000002 428.4119 L 596.1193000000002 423.0162 L 597.2813000000002 417.4291 L 598.4672000000002 412.50350000000003 L 599.8457000000002 407.15380000000005 C 601.6386000000002 400.3328 603.5160000000002 393.81460000000004 605.2451000000002 387.55090000000007 C 608.6725000000002 375.0200000000001 611.3895000000002 363.45310000000006 611.9169000000002 352.92440000000005 L 611.9704000000002 350.97380000000004 L 612.0059000000001 349.99890000000005 L 612.0251000000001 349.51140000000004 C 612.0344000000001 349.9014 612.0178000000001 348.29390000000006 612.0489000000001 350.32430000000005 L 612.0376000000001 350.00680000000006 L 611.8597000000001 344.92740000000003 C 611.8483000000001 340.9999 611.3378000000001 339.48280000000005 611.1231000000001 337.19750000000005 L 611.0333000000002 336.38320000000004 C 611.0048000000002 336.11140000000006 610.9912000000002 335.85330000000005 610.9016000000001 335.5128 L 610.4829000000002 333.58970000000005 C 610.2048000000002 332.30780000000004 609.9499000000002 331.02150000000006 609.7018000000002 329.73240000000004 C 609.4217000000002 328.44640000000004 608.9693000000002 327.17690000000005 608.6235000000001 325.89520000000005 C 608.2285000000002 324.6197 607.9511000000001 323.3253 607.4815000000001 322.05770000000007 C 603.9620000000001 311.8842000000001 598.6806000000001 301.88900000000007 592.0994000000001 292.46090000000004 C 588.8687000000001 287.7137 585.2033 283.16380000000004 581.4015 278.72 C 579.5229 276.4796 577.4566000000001 274.36060000000003 575.5070000000001 272.1707 C 573.4662000000001 270.0439 571.3511000000001 267.9756 569.2897 265.8734 C 567.1199 263.8515 564.9565 261.83570000000003 562.8004000000001 259.8266 C 560.5509000000001 257.8992 558.3713000000001 255.90689999999998 556.0879000000001 254.03289999999998 C 554.9392000000001 253.10189999999997 553.7923000000001 252.1726 552.6480000000001 251.24499999999998 L 550.9379000000001 249.8447 L 550.7246000000001 249.6693 C 550.6104000000001 249.57819999999998 550.9818000000001 249.8434 550.7101000000001 249.644 L 550.2327000000001 249.278 L 549.2784000000001 248.54659999999998 C 548.0068000000001 247.57189999999997 546.7378000000001 246.599 545.4712000000002 245.6281 L 543.5835000000002 244.1864 L 541.8087000000002 242.8843 C 539.4314000000002 241.1435 537.1448000000001 239.4296 534.6185000000002 237.6578 C 532.1508000000001 235.89600000000002 529.7041000000002 234.1346 527.1871000000001 232.4164 C 524.6956000000001 230.6878 522.2091000000001 228.9674 519.6784000000001 227.2713 C 517.1559000000001 225.5573 514.6464000000001 223.8521 512.1500000000001 222.1561 C 502.0888000000001 215.38420000000002 492.0372000000001 208.65300000000002 482.29390000000006 201.7444 C 462.7823000000001 187.96460000000002 444.62430000000006 173.26530000000002 429.9637000000001 157.12220000000002 C 422.5567000000001 148.84740000000002 416.3269000000001 140.52900000000002 411.05190000000005 132.08810000000003 C 405.8525 123.63090000000003 401.52830000000006 115.26300000000003 398.2839 107.05440000000003 C 395.034 98.85690000000002 392.65790000000004 90.93280000000003 391.1974 83.47520000000003 C 389.75350000000003 76.01020000000003 389.0738 69.06200000000003 389.0758 62.81020000000003 C 388.9802 50.28230000000003 391.3182 40.756600000000034 393.3279 34.59870000000003 C 394.3534 31.507800000000028 395.2824 29.21120000000003 395.9766 27.69310000000003 C 396.64610000000005 26.17470000000003 396.9916 25.39110000000003 396.9916 25.39110000000003 C 396.9916 25.39110000000003 396.8829 26.23990000000003 396.6728 27.88440000000003 C 396.4278 29.512200000000032 396.2436 31.96390000000003 396.0475 35.10600000000003 C 396.0083 36.68830000000003 395.8874 38.43170000000003 395.9603 40.36290000000003 C 395.992 41.32710000000003 395.9545 42.32330000000003 396.0147 43.36820000000003 C 396.0743 44.40800000000003 396.13620000000003 45.49060000000003 396.2004 46.61520000000003 C 396.577 51.09890000000003 397.2698 56.18820000000003 398.5821 61.72480000000003 C 399.9263 67.25410000000004 401.79040000000003 73.23980000000003 404.4481 79.47290000000004 C 407.1834 85.67830000000004 410.4646 92.20510000000004 414.69640000000004 98.73940000000005 C 416.802 102.00840000000005 419.1025 105.29430000000005 421.54600000000005 108.60280000000004 C 424.04440000000005 111.88230000000004 426.71960000000007 115.16300000000004 429.59370000000007 118.40990000000005 C 432.5121000000001 121.62470000000005 435.53640000000007 124.87030000000004 438.78370000000007 128.03470000000004 C 442.01150000000007 131.17670000000004 445.54330000000004 134.32210000000003 449.0814000000001 137.22330000000005 C 456.3637000000001 143.23800000000006 464.5545000000001 149.10660000000004 473.3440000000001 154.71520000000004 C 482.1371000000001 160.35790000000003 491.5491000000001 165.87690000000003 501.4894000000001 171.43240000000003 C 511.6311000000001 177.00660000000002 522.0494000000001 182.73290000000003 532.6982000000002 188.58590000000004 C 538.1028000000001 191.56340000000003 543.6024000000001 194.65060000000003 549.1441000000002 197.91130000000004 C 554.7082000000003 201.15070000000003 560.2435000000002 204.47900000000004 566.0735000000002 208.24430000000004 L 568.2418000000002 209.62690000000003 L 570.2497000000002 210.95560000000003 C 571.5791000000002 211.83860000000004 572.9114000000002 212.72340000000003 574.2461000000002 213.60990000000004 L 575.2474000000002 214.27510000000004 L 575.7487000000002 214.60790000000003 C 575.6406000000002 214.52430000000004 576.1750000000002 214.90630000000002 576.2192000000002 214.93840000000003 L 576.4848000000002 215.12700000000004 L 578.6102000000002 216.64240000000004 C 580.0248000000001 217.66040000000004 581.4422000000002 218.68040000000005 582.8620000000002 219.70210000000003 C 585.6906000000002 221.76590000000002 588.4401000000001 223.98070000000004 591.2465000000002 226.13420000000002 C 593.9998000000002 228.36710000000002 596.7234000000002 230.6766 599.4552000000002 232.9874 C 602.1048000000002 235.42000000000002 604.7924000000003 237.82240000000002 607.4245000000002 240.3227 C 609.9918000000002 242.9128 612.6399000000002 245.4163 615.1500000000002 248.121 C 620.1599000000002 253.53230000000002 625.0505000000002 259.18010000000004 629.5758000000002 265.2917 C 638.6313000000002 277.4581 646.6075000000002 291.1752 652.1039000000002 306.4804 C 652.8202000000002 308.3723 653.3537000000002 310.36699999999996 653.9764000000001 312.3117 C 654.5547000000001 314.2783 655.2172000000002 316.20959999999997 655.7054000000002 318.2145 L 657.0444000000002 324.2809 L 657.6863000000002 327.322 C 657.8031000000002 327.80400000000003 657.8749000000001 328.389 657.9525000000002 328.9568 L 658.1812000000002 330.6615 C 658.4808000000003 332.9359 658.7580000000003 335.2159 659.0120000000002 337.4962 C 659.3424000000002 340.042 659.2944000000002 341.3667 659.3894000000001 343.142 L 659.5940000000002 348.2204 L 659.6068000000001 348.5378 C 659.6408000000001 350.7798 659.6109000000001 349.384 659.6158000000001 349.9857 L 659.5963000000002 350.7684 L 659.5542000000002 352.33389999999997 L 659.4513000000002 355.4641 C 658.4874000000002 372.06469999999996 654.5962000000002 386.99739999999997 650.6849000000002 400.40819999999997 C 648.7656000000002 406.83779999999996 646.8504000000001 413.2548 644.9406000000002 419.6529 L 643.6864000000003 424.0225 L 642.3927000000003 428.83959999999996 C 641.7113000000003 431.7141 641.0313000000003 434.58359999999993 640.3525000000003 437.44739999999996 C 637.8157000000003 449.2152 636.1898000000003 461.13259999999997 635.4782000000004 473.00389999999993 C 634.7358000000004 484.8721999999999 634.8467000000004 496.70949999999993 635.9164000000004 508.29849999999993 C 636.9466000000004 519.8923 638.7824000000004 531.2448999999999 641.2576000000004 542.2435999999999 C 641.9454000000004 544.9775999999999 642.6294000000004 547.6967999999999 643.3097000000004 550.4003999999999 C 644.0013000000004 553.1050999999999 644.8649000000004 555.7388999999998 645.6233000000003 558.3971999999999 C 646.0327000000003 559.7147999999999 646.3611000000003 561.0617999999998 646.8325000000003 562.3483999999999 C 647.2837000000003 563.6443999999999 647.7339000000003 564.9362999999998 648.1825000000003 566.2239999999998 C 649.0850000000004 568.7841999999998 649.9063000000003 571.4549999999998 650.8913000000003 573.7886999999998 C 651.8398000000003 576.2126999999998 652.7819000000003 578.6199999999999 653.7172000000004 581.0101999999998 C 654.9028000000004 583.6309999999999 656.0802000000004 586.2328999999999 657.2484000000004 588.8151999999998 L 658.1210000000004 590.7492999999997 L 658.2297000000004 590.9905999999997 C 658.4381000000004 591.3868999999997 658.0678000000005 590.7230999999997 658.1469000000004 590.8697999999997 L 658.3686000000005 591.3070999999998 L 658.8114000000005 592.1808999999997 C 659.4016000000005 593.3470999999997 659.9891000000005 594.5086999999997 660.5744000000005 595.6655999999997 C 661.7640000000006 597.9713999999997 662.8340000000005 600.3315999999998 664.1364000000005 602.5360999999997 C 665.3851000000005 604.7796999999997 666.6233000000005 607.0043999999997 667.8504000000006 609.2093999999997 C 669.1807000000006 611.3604999999998 670.4994000000006 613.4924999999997 671.8055000000006 615.6045999999998 C 672.4649000000006 616.6615999999998 673.1213000000006 617.7135999999998 673.7745000000007 618.7605999999997 C 674.4748000000006 619.7761999999997 675.1719000000006 620.7868999999997 675.8653000000006 621.7926999999997 C 677.2479000000006 623.8188999999998 678.6166000000006 625.8249999999997 679.9713000000006 627.8104999999997 C 691.2486000000006 643.4087999999997 703.3863000000006 656.6468999999997 715.1239000000006 667.4954999999998 C 726.8603000000006 678.3688999999997 738.2216000000006 686.8023999999998 747.9536000000006 693.2879999999998 C 750.3462000000006 694.9943999999998 752.7212000000006 696.4127999999998 754.9465000000006 697.7886999999998 C 757.1742000000006 699.1499999999999 759.2323000000006 700.5543999999999 761.2138000000006 701.6661999999999 C 763.2020000000006 702.7956999999999 765.0414000000005 703.8408999999999 766.7268000000006 704.7982999999999 C 768.4206000000006 705.7653999999999 769.9398000000006 706.6981 771.3860000000006 707.3980999999999 C 777.0709 710.3754 780.1026 711.9634 780.1026 711.9634 z" stroke-linecap="round" />
</g>
</g>
</g>
</svg>