<svg width="15" height="18" viewBox="0 0 15 18" fill="none" xmlns="http://www.w3.org/2000/svg">
<g clip-path="url(#clip0_4_2)">
<path d="M14.809 3.7026C14.6903 3.60684 14.5389 3.58488 14.4052 3.64518L7.95209 6.54318C7.67153 6.66972 7.32032 6.73074 6.95956 6.73074C6.4566 6.73218 5.93612 6.61068 5.57344 6.44526C5.44358 6.38784 5.33525 6.32322 5.25869 6.26562C5.28681 6.2514 5.31876 6.23646 5.35626 6.22134L11.2274 3.58668L12.1042 3.9753V2.83986C12.1042 2.67084 12.0351 2.51064 11.9163 2.41614C11.7974 2.32038 11.6455 2.29842 11.5132 2.35872L5.05313 5.25492C4.85417 5.3388 4.68317 5.4405 4.53803 5.58972C4.39584 5.7339 4.27292 5.97204 4.27483 6.23646C4.27483 6.24366 4.27674 6.25536 4.27674 6.25536V16.4579C4.27674 16.4619 4.27553 16.4668 4.27553 16.4714C4.27553 16.4749 4.27674 16.4761 4.27674 16.4795V16.4905H4.27813C4.29254 16.8523 4.46528 17.0824 4.63108 17.2346C5.15192 17.7113 6.02865 17.978 6.95869 17.9996C7.39966 17.9996 7.84758 17.9273 8.26112 17.746L14.716 14.8462C14.8868 14.7739 14.9977 14.5811 14.9977 14.3694V4.1274C14.9974 3.95856 14.9271 3.79872 14.8096 3.70296" fill="white"/>
<path d="M10.7157 1.76299C10.7041 1.61017 10.644 1.46599 10.5343 1.37815C10.4163 1.28239 10.2642 1.26043 10.1298 1.32073L3.67668 4.21873C3.39612 4.34455 3.04421 4.40647 2.68397 4.40647C2.18102 4.40719 1.66036 4.28569 1.29768 4.12045C1.16887 4.06357 1.05984 3.99895 0.983102 3.94153C1.01123 3.92695 1.04387 3.91237 1.08067 3.89725L6.95116 1.26241L7.82616 1.65103V0.515592C7.82616 0.346572 7.75532 0.186552 7.63657 0.0918723C7.51887 -0.00388773 7.36453 -0.0262077 7.23171 0.0344523L0.778588 2.93065C0.579629 3.01381 0.409317 3.11569 0.264178 3.26545C0.121296 3.40963 -0.000926336 3.64777 0.000983386 3.91255C0.000983386 3.91993 0.00289311 3.93109 0.00289311 3.93109V14.134C0.00289311 14.138 0.00219866 14.1436 0.00219866 14.1475C0.00219866 14.1502 0.00289311 14.1515 0.00289311 14.1623V14.1758H0.00410839C0.0181709 14.5376 0.191435 14.7676 0.35706 14.9179C0.877893 15.3948 1.75463 15.6532 2.68518 15.6775C2.9364 15.6775 3.18883 15.6437 3.43744 15.5951V6.25831C3.43084 5.77339 3.61782 5.30791 3.94664 4.97275C4.15966 4.75459 4.41956 4.58215 4.74161 4.44913L10.7166 1.76281" fill="white"/>
</g>
<defs>
<clipPath id="clip0_4_2">
<rect width="15" height="18" fill="white"/>
</clipPath>
</defs>
</svg>
